<?xml version="1.0" standalone="no"?>
<!DOCTYPE svg PUBLIC "-//W3C//DTD SVG 20010904//EN"
 "http://www.w3.org/TR/2001/REC-SVG-20010904/DTD/svg10.dtd">
<svg version="1.0" xmlns="http://www.w3.org/2000/svg"
 width="512.000000pt" height="512.000000pt" viewBox="0 0 512.000000 512.000000"
 preserveAspectRatio="xMidYMid meet">
<metadata>
Created by potrace 1.11, written by Peter Selinger 2001-2013
</metadata>
<g transform="translate(0.000000,512.000000) scale(0.100000,-0.100000)"
fill="#000000" stroke="none">
<path d="M2385 5104 c-373 -37 -640 -107 -920 -243 -282 -136 -485 -280 -706
-500 -401 -402 -642 -886 -725 -1456 -25 -166 -25 -524 0 -690 65 -446 226
-836 494 -1195 111 -148 344 -381 492 -492 359 -268 749 -429 1195 -494 166
-25 524 -25 690 0 446 65 836 226 1195 494 148 111 381 344 492 492 268 359
429 749 494 1195 25 166 25 524 0 690 -65 446 -226 836 -494 1195 -111 148
-344 381 -492 492 -353 263 -739 425 -1164 489 -125 19 -456 33 -551 23z m530
-118 c512 -82 978 -311 1349 -665 103 -99 246 -272 338 -410 197 -298 327
-637 385 -1006 25 -156 24 -536 0 -693 -59 -370 -187 -704 -385 -1003 -189
-284 -407 -502 -691 -691 -298 -197 -637 -327 -1006 -385 -156 -25 -536 -24
-693 0 -520 83 -983 310 -1356 666 -103 99 -246 272 -338 410 -197 298 -327
637 -385 1006 -25 154 -25 536 0 690 81 520 310 986 666 1359 99 103 272 246
410 338 339 224 718 357 1146 402 88 9 464 -3 560 -18z"/>
<path d="M2405 3994 c-99 -11 -265 -48 -352 -79 -147 -53 -235 -107 -338 -210
-104 -103 -161 -200 -196 -332 -25 -92 -30 -299 -10 -403 44 -228 176 -392
406 -504 113 -55 220 -92 460 -156 561 -150 685 -228 660 -414 -22 -167 -156
-244 -466 -266 -335 -24 -686 65 -952 241 -32 22 -60 39 -63 39 -2 0 -4 -128
-4 -285 l0 -285 25 -16 c44 -29 202 -93 304 -123 195 -58 330 -76 586 -75 170
0 256 5 330 17 404 70 664 243 773 517 49 124 68 276 53 420 -21 191 -67 303
-168 411 -142 150 -280 215 -710 333 -531 147 -663 225 -663 388 1 99 57 175
166 225 178 81 586 73 855 -17 89 -30 212 -87 261 -121 14 -11 29 -19 32 -19
3 0 6 121 6 269 l0 269 -32 20 c-84 51 -268 109 -438 137 -92 16 -439 28 -525
19z"/>
</g>
</svg>
