<?xml version="1.0" standalone="no"?>
<!DOCTYPE svg PUBLIC "-//W3C//DTD SVG 20010904//EN"
 "http://www.w3.org/TR/2001/REC-SVG-20010904/DTD/svg10.dtd">
<svg version="1.0" xmlns="http://www.w3.org/2000/svg"
 width="512.000000pt" height="512.000000pt" viewBox="0 0 512.000000 512.000000"
 preserveAspectRatio="xMidYMid meet">
<metadata>
Created by potrace 1.11, written by Peter Selinger 2001-2013
</metadata>
<g transform="translate(0.000000,512.000000) scale(0.100000,-0.100000)"
fill="#000000" stroke="none">
<path d="M2385 5104 c-373 -37 -640 -107 -920 -243 -282 -136 -485 -280 -706
-500 -401 -402 -642 -886 -725 -1456 -25 -166 -25 -524 0 -690 65 -446 226
-836 494 -1195 111 -148 344 -381 492 -492 359 -268 749 -429 1195 -494 166
-25 524 -25 690 0 446 65 836 226 1195 494 148 111 381 344 492 492 268 359
429 749 494 1195 25 166 25 524 0 690 -65 446 -226 836 -494 1195 -111 148
-344 381 -492 492 -353 263 -739 425 -1164 489 -125 19 -456 33 -551 23z m530
-118 c512 -82 978 -311 1349 -665 103 -99 246 -272 338 -410 197 -298 327
-637 385 -1006 25 -156 24 -536 0 -693 -59 -370 -187 -704 -385 -1003 -189
-284 -407 -502 -691 -691 -298 -197 -637 -327 -1006 -385 -156 -25 -536 -24
-693 0 -520 83 -983 310 -1356 666 -103 99 -246 272 -338 410 -197 298 -327
637 -385 1006 -25 154 -25 536 0 690 81 520 310 986 666 1359 99 103 272 246
410 338 339 224 718 357 1146 402 88 9 464 -3 560 -18z"/>
<path d="M1765 3960 c-214 -4 -402 -8 -417 -9 l-28 -1 0 -245 0 -245 120 0
120 0 0 -905 0 -905 -120 0 -120 0 0 -244 0 -244 513 -7 c281 -4 676 -5 877
-2 310 4 381 8 475 25 257 48 447 146 559 289 62 79 91 134 122 238 24 79 27
108 28 240 2 237 -40 352 -179 491 -104 105 -180 147 -362 200 -25 7 -10 20
65 56 241 115 367 363 332 654 -41 338 -234 522 -633 600 -97 19 -707 26
-1352 14z m1183 -515 c107 -25 165 -65 205 -140 18 -33 22 -57 22 -135 0 -86
-3 -100 -30 -148 -34 -63 -91 -106 -179 -136 -57 -19 -90 -20 -458 -24 l-398
-3 0 300 0 301 233 3 c330 5 531 -1 605 -18z m70 -1078 c135 -36 230 -105 274
-202 32 -70 33 -238 2 -306 -31 -66 -80 -116 -147 -150 -105 -53 -165 -59
-623 -59 l-414 0 0 371 0 371 423 -5 c349 -3 433 -7 485 -20z"/>
</g>
</svg>
